<svg xmlns="http://www.w3.org/2000/svg" xmlns:xlink="http://www.w3.org/1999/xlink" version="1.1" enable-background="new 0 0 1000 1000" xml:space="preserve" width="1000" height="1000" style=""><rect id="backgroundrect" width="100%" height="100%" x="0" y="0" fill="none" stroke="none"/>
<metadata> Svg Vector Icons : http://www.onlinewebfonts.com/icon </metadata>

<g class="currentLayer" style=""><title>Layer 1</title><g id="svg_1" class="selected" fill-opacity="1" fill="#ff0000"><path d="M926.9,990c-16.1,0-32.3-6.2-44.6-18.5L28.5,117.7c-24.7-24.7-24.7-64.5,0-89.2c24.7-24.7,64.5-24.7,89.2,0l853.7,853.7c24.7,24.7,24.7,64.5,0,89.2C959.1,983.8,943,990,926.9,990z" id="svg_2" fill="#ff0000"/><path d="M73.1,990c-16.1,0-32.3-6.2-44.6-18.5c-24.7-24.7-24.7-64.5,0-89.2L882.3,28.5c24.7-24.7,64.5-24.7,89.2,0s24.7,64.5,0,89.2L117.7,971.5C105.4,983.8,89.3,990,73.1,990z" id="svg_3" fill="#ff0000"/></g></g></svg>